HIERARCHY
ROOT root
{
	OFFSET 0.000000 0.000000 0.000000
	CHANNELS 6 Xposition Yposition Zposition Zrotation Yrotation Xrotation
	JOINT lhip
	{
		OFFSET 0.058581 -0.082280 -0.017664
		CHANNELS 3 Zrotation Yrotation Xrotation
		JOINT lknee
		{
			OFFSET 0.043451 -0.386469 0.008037
			CHANNELS 3 Zrotation Yrotation Xrotation
			JOINT lankle
			{
				OFFSET -0.014790 -0.426874 -0.037428
				CHANNELS 3 Zrotation Yrotation Xrotation
				JOINT ltoe
				{
					OFFSET 0.041054 -0.060286 0.122042
					CHANNELS 3 Zrotation Yrotation Xrotation
					End Site
					{
						OFFSET 0.000000 0.000000 0.000000
					}
				}
			}
		}
	}
	JOINT rhip
	{
		OFFSET -0.060310 -0.090513 -0.013543
		CHANNELS 3 Zrotation Yrotation Xrotation
		JOINT rknee
		{
			OFFSET -0.043257 -0.383688 -0.004843
			CHANNELS 3 Zrotation Yrotation Xrotation
			JOINT rankle
			{
				OFFSET 0.019056 -0.420046 -0.034562
				CHANNELS 3 Zrotation Yrotation Xrotation
				JOINT rtoe
				{
					OFFSET -0.034840 -0.062106 0.130323
					CHANNELS 3 Zrotation Yrotation Xrotation
					End Site
					{
						OFFSET 0.000000 0.000000 0.000000
					}
				}
			}
		}
	}
	JOINT lowerback
	{
		OFFSET 0.004439 0.124404 -0.038385
		CHANNELS 3 Zrotation Yrotation Xrotation
		JOINT upperback
		{
			OFFSET 0.004488 0.137956 0.026820
			CHANNELS 3 Zrotation Yrotation Xrotation
			JOINT chest
			{
				OFFSET -0.002265 0.056032 0.002855
				CHANNELS 3 Zrotation Yrotation Xrotation
				JOINT lowerneck
				{
					OFFSET -0.013390 0.211636 -0.033468
					CHANNELS 3 Zrotation Yrotation Xrotation
					JOINT upperneck
					{
						OFFSET 0.010113 0.088937 0.050410
						CHANNELS 3 Zrotation Yrotation Xrotation
						End Site
						{
							OFFSET 0.000000 0.000000 0.000000
						}
					}
				}
				JOINT lclavicle
				{
					OFFSET 0.071702 0.114000 -0.018898
					CHANNELS 3 Zrotation Yrotation Xrotation
					JOINT lshoulder
					{
						OFFSET 0.122921 0.045205 -0.019046
						CHANNELS 3 Zrotation Yrotation Xrotation
						JOINT lelbow
						{
							OFFSET 0.255332 -0.015649 -0.022946
							CHANNELS 3 Zrotation Yrotation Xrotation
							JOINT lwrist
							{
								OFFSET 0.265709 0.012698 -0.007375
								CHANNELS 3 Zrotation Yrotation Xrotation
								End Site
								{
									OFFSET 0.000000 0.000000 0.000000
								}
							}
						}
					}
				}
				JOINT rclavicle
				{
					OFFSET -0.082954 0.112472 -0.023707
					CHANNELS 3 Zrotation Yrotation Xrotation
					JOINT rshoulder
					{
						OFFSET -0.113228 0.046853 -0.008472
						CHANNELS 3 Zrotation Yrotation Xrotation
						JOINT relbow
						{
							OFFSET -0.260127 -0.014369 -0.031269
							CHANNELS 3 Zrotation Yrotation Xrotation
							JOINT rwrist
							{
								OFFSET -0.269108 0.006794 -0.006027
								CHANNELS 3 Zrotation Yrotation Xrotation
								End Site
								{
									OFFSET 0.000000 0.000000 0.000000
								}
							}
						}
					}
				}
			}
		}
	}
}
MOTION
Frames: 7
Frame Time: 0.033333
2.326320 0.656158 1.000148 -88.004449 -0.806484 83.401300 -2.657265 0.047137 3.390056 -0.284859 -11.161034 2.444010 2.305678 8.710391 -4.972855 0.000000 -0.000000 0.000000 2.439720 -3.102379 2.642560 -3.943905 -1.389065 6.470896 1.070859 -11.637811 -9.709420 0.000000 -0.000000 0.000000 -1.019386 0.929946 7.225715 -1.206481 -0.618684 -2.616362 -1.035727 1.024567 0.070651 -0.558913 -4.912795 -1.969345 1.044876 -5.685035 6.382961 -27.311226 -2.607961 2.676507 -52.983897 -8.354488 11.365633 2.536659 -20.802164 15.219177 5.747093 -4.486500 -3.787908 25.080307 8.708304 5.124834 56.306622 1.148508 20.689958 2.225637 27.327964 21.995002 -2.898792 5.075295 -4.840545 
2.326302 0.656426 1.000207 -88.027876 -0.817530 83.301791 -2.645189 0.040024 3.506114 -0.248116 -11.033919 2.410358 2.135632 8.763041 -4.943391 0.000000 -0.000000 0.000000 2.497181 -2.968532 2.805923 -4.020440 -1.349140 6.432409 1.008114 -11.701874 -9.755012 0.000000 -0.000000 0.000000 -1.035458 0.869274 7.238621 -1.164488 -0.552731 -2.479467 -1.044866 1.028503 0.007706 -0.459590 -4.806033 -1.894372 0.898569 -5.727190 6.312031 -27.274258 -2.599122 2.859169 -53.063828 -8.353753 11.587823 2.598128 -20.915172 16.079319 5.291736 -4.980431 -4.395816 25.014539 8.649759 5.162606 56.315287 1.237921 20.799476 2.302977 27.267277 22.448027 -3.524692 5.089770 -5.631531 
2.326412 0.656582 1.000107 -88.043502 -0.863746 83.236947 -2.666491 -0.016808 3.596454 -0.261926 -11.017125 2.383396 2.065533 8.713361 -4.827919 0.000000 -0.000000 0.000000 2.427663 -2.909321 2.924690 -3.958258 -1.327344 6.310343 1.036595 -11.626533 -9.611137 0.000000 -0.000000 0.000000 -0.975213 0.909600 7.141521 -1.200297 -0.524506 -2.185257 -1.095638 0.928215 -0.043486 -0.376865 -4.649239 -1.716274 0.919579 -5.729713 6.182412 -27.290895 -2.649523 2.935789 -52.963580 -8.459618 11.487046 2.627150 -21.115540 15.881519 3.834420 -4.827572 -4.996369 25.014091 8.647667 5.165762 56.386242 1.408344 20.781054 2.135943 27.024396 22.494473 -2.966686 5.029811 -5.296880 
2.326656 0.656761 0.999667 -88.116941 -0.909244 83.265145 -2.660356 -0.034616 3.518580 -0.327760 -10.940370 2.414701 2.039835 8.725997 -4.783440 0.000000 -0.000000 0.000000 2.386371 -2.891504 2.804642 -3.972811 -1.380593 6.431390 0.847010 -11.753235 -9.699031 0.000000 -0.000000 0.000000 -0.927541 0.888713 7.083248 -1.207639 -0.565155 -2.210572 -1.092139 1.047131 0.023142 -0.458177 -4.421080 -1.754670 0.919004 -5.591467 6.571451 -27.154205 -2.649057 2.875983 -53.183214 -8.522421 11.531528 2.599467 -21.043291 15.886890 3.971678 -4.704906 -5.311169 25.007798 8.689207 5.285691 56.306478 1.495740 20.797991 2.033228 27.137256 22.556106 -2.855627 5.023411 -5.555829 
2.326716 0.656909 0.999657 -88.216227 -0.952006 83.206941 -2.696609 -0.000301 3.622385 -0.293335 -10.917001 2.343068 2.057807 8.765029 -4.794527 0.000000 -0.000000 0.000000 2.389155 -2.798012 2.882685 -4.011442 -1.282614 6.381819 0.994277 -11.583014 -9.520783 0.000000 -0.000000 0.000000 -0.931026 0.865401 7.043164 -1.231049 -0.550029 -2.111377 -1.097805 1.073253 0.016929 -0.442977 -4.270717 -1.569066 0.879517 -5.439703 6.646675 -27.194707 -2.748255 2.961437 -53.148442 -8.531516 11.574427 2.675791 -21.023385 15.578410 4.103924 -4.598431 -5.319163 25.038484 8.669020 5.393920 56.294307 1.726425 20.785666 1.999433 27.127539 22.420262 -2.810913 4.932092 -5.778940 
2.327044 0.656916 0.999613 -88.348414 -1.009874 83.181939 -2.763692 0.071218 3.636449 -0.269542 -10.895361 2.364353 2.084429 8.793393 -4.793241 0.000000 -0.000000 0.000000 2.315568 -2.714578 2.862609 -4.002487 -1.304817 6.440772 1.053371 -11.722464 -9.634551 0.000000 -0.000000 0.000000 -0.899494 0.831656 7.105328 -1.261995 -0.462024 -2.212284 -1.118001 1.130145 0.067375 -0.293235 -4.343129 -1.570000 0.765100 -5.376338 7.048336 -27.163994 -2.622336 2.916523 -53.248621 -8.633438 11.603031 2.624361 -21.041225 15.886973 4.097284 -4.551675 -5.039629 24.992223 8.615944 5.319067 56.364786 1.801729 20.865616 1.944163 27.106820 22.380483 -2.827247 4.907288 -5.724897 
2.327176 0.656840 0.999690 -88.340951 -0.999178 83.103408 -2.779986 0.066242 3.704003 -0.268412 -10.989564 2.396787 2.141334 8.847750 -4.885781 0.000000 -0.000000 0.000000 2.317745 -2.736798 2.985896 -4.007847 -1.230945 6.379484 1.097462 -11.732990 -9.733561 0.000000 -0.000000 0.000000 -0.819820 0.778631 7.206667 -1.247858 -0.547251 -2.246580 -1.131322 1.127953 0.058745 -0.296115 -4.259301 -1.483319 0.615827 -5.167084 7.410208 -27.247561 -2.648356 2.883367 -53.177074 -8.565941 11.637920 2.590386 -20.986086 15.795231 4.807522 -4.511033 -4.892127 25.003184 8.675856 5.199715 56.349374 1.780227 20.959303 2.015147 27.033527 22.336970 -3.412898 5.000948 -5.542244 
